<svg fill="#12B886" xmlns="http://www.w3.org/2000/svg"  viewBox="0 0 128 128" width="64px" height="64px"><path d="M 58 1 C 56.3 1 55 2.3 55 4 L 55 37 C 55 44.2 49.2 50 42 50 L 17 50 C 15.3 50 14 51.3 14 53 L 14 124 C 14 125.7 15.3 127 17 127 L 18 127 C 18.8 127 19.599609 126.69961 20.099609 126.09961 L 28 118.19922 L 35.900391 126.09961 C 37.100391 127.29961 38.999609 127.29961 40.099609 126.09961 L 48 118.19922 L 55.900391 126.09961 C 57.100391 127.29961 58.999609 127.29961 60.099609 126.09961 L 68 118.19922 L 75.900391 126.09961 C 77.100391 127.29961 78.999609 127.29961 80.099609 126.09961 L 88 118.19922 L 95.900391 126.09961 C 96.500391 126.69961 97.3 127 98 127 C 98.7 127 99.499609 126.69961 100.09961 126.09961 L 110.09961 116.09961 C 110.69961 115.49961 111 114.8 111 114 L 111 11 C 111 5.5 106.5 1 101 1 L 58 1 z M 45.878906 7.7460938 C 45.344531 7.7742188 44.800781 7.9507812 44.300781 8.3007812 C 43.300781 9.0007812 42.4 9.7003906 41.5 10.400391 L 16.400391 31.900391 C 14.400391 33.600391 13.500781 36.499609 14.300781 39.099609 C 15.200781 41.999609 17.999609 43.900391 21.099609 43.900391 L 39 43.900391 C 44.5 43.900391 49 39.400391 49 33.900391 L 49 10.699219 C 49 8.8992188 47.482031 7.6617187 45.878906 7.7460938 z M 48.410156 71.837891 C 52.386108 71.773438 55.269531 75.3125 57.800781 78.5 C 59.600781 80.7 61.900391 83.500391 63.400391 83.400391 C 64.500391 83.300391 65.900781 81.899609 67.300781 80.599609 C 69.500781 78.499609 72.299219 75.799219 76.199219 76.199219 C 77.299219 76.299219 78.4 76.599219 79.5 77.199219 C 80.9 77.899219 81.499219 79.799219 80.699219 81.199219 C 79.999219 82.699219 78.199219 83.3 76.699219 82.5 C 76.199219 82.3 75.8 82.099609 75.5 82.099609 C 74.4 81.999609 72.900391 83.400391 71.400391 84.900391 C 69.400391 86.800391 67.2 89.000781 64 89.300781 L 63.199219 89.300781 C 58.799219 89.300781 55.799609 85.499219 53.099609 82.199219 C 51.799609 80.499219 49.799609 78.100781 48.599609 77.800781 C 47.599609 78.700781 45.400391 81.700781 43.900391 83.800781 C 43.300391 84.600781 42.799219 85.399219 42.199219 86.199219 C 41.199219 87.499219 39.3 87.800781 38 86.800781 C 36.7 85.800781 36.400391 83.899609 37.400391 82.599609 C 38.000391 81.799609 38.499609 81.100781 39.099609 80.300781 C 42.999609 74.800781 44.999609 72.200391 47.599609 71.900391 C 47.874609 71.862891 48.145093 71.842187 48.410156 71.837891 z M 90 83 C 91.7 83 93 84.3 93 86 C 93 87.7 91.7 89 90 89 C 88.3 89 87 87.7 87 86 C 87 84.3 88.3 83 90 83 z"/></svg>